<svg width="132" height="38" viewBox="0 0 132 38" fill="none" xmlns="http://www.w3.org/2000/svg">
<path d="M127.697 9.52374V28.2326H132V9.52374H127.697ZM121.377 14.1251V16.1225C120.975 15.4644 120.399 14.934 119.653 14.5296C118.907 14.1251 118.038 13.9229 117.048 13.9229C115.889 13.9229 114.842 14.2179 113.903 14.8064C112.962 15.3965 112.22 16.2385 111.675 17.3358C111.131 18.4315 110.857 19.7028 110.857 21.1532C110.857 22.6035 111.131 23.8798 111.675 24.9838C112.22 26.0877 112.962 26.9397 113.903 27.5381C114.842 28.1365 115.883 28.4365 117.023 28.4365C118.013 28.4365 118.881 28.2326 119.628 27.8298C120.374 27.4254 120.958 26.8933 121.377 26.2369V28.2343H125.681V14.1268H121.377V14.1251ZM120.483 23.7323C119.887 24.3556 119.161 24.6688 118.305 24.6688C117.449 24.6688 116.723 24.3523 116.127 23.7207C115.531 23.0875 115.234 22.2322 115.234 21.1548C115.234 20.0774 115.531 19.2287 116.127 18.6138C116.723 17.9988 117.449 17.6905 118.305 17.6905C119.161 17.6905 119.887 18.0021 120.483 18.6271C121.079 19.2503 121.377 20.1006 121.377 21.1813C121.377 22.2621 121.079 23.1107 120.483 23.7356V23.7323ZM107.664 15.5788C106.682 14.508 105.371 13.9743 103.726 13.9743C102.802 13.9743 101.972 14.155 101.234 14.518C100.497 14.881 99.9075 15.3733 99.4719 15.9965V14.1268H95.1687V28.2343H99.4719V20.573C99.4719 19.6299 99.7161 18.8972 100.203 18.3734C100.69 17.853 101.343 17.5911 102.166 17.5911C102.99 17.5911 103.641 17.853 104.128 18.3734C104.615 18.8972 104.859 19.6299 104.859 20.573V28.2343H109.138V19.9929C109.138 18.1215 108.648 16.6512 107.666 15.5805L107.664 15.5788ZM88.7354 14.1251V28.2326H93.0386V14.1251H88.7354ZM92.7234 8.65021C92.2449 8.20433 91.6361 7.98055 90.8985 7.98055C90.161 7.98055 89.5257 8.20433 89.0489 8.65021C88.5704 9.09609 88.3311 9.658 88.3311 10.3326C88.3311 11.0073 88.5704 11.541 89.0489 11.9885C89.5274 12.4344 90.1445 12.6598 90.8985 12.6598C91.6526 12.6598 92.2449 12.4361 92.7234 11.9885C93.2019 11.5426 93.4412 10.989 93.4412 10.3326C93.4412 9.67624 93.2019 9.09775 92.7234 8.65021ZM82.4159 14.1251V16.1225C82.0133 15.4644 81.439 14.934 80.6916 14.5296C79.9442 14.1251 79.0763 13.9229 78.0863 13.9229C76.928 13.9229 75.8802 14.2179 74.9414 14.8064C74.0009 15.3965 73.2584 16.2385 72.7139 17.3358C72.1693 18.4315 71.8954 19.7028 71.8954 21.1532C71.8954 22.6035 72.1693 23.8798 72.7139 24.9838C73.2584 26.0877 74.0009 26.9397 74.9414 27.5381C75.8802 28.1365 76.9296 28.4365 78.0863 28.4365C79.0763 28.4365 79.9408 28.2293 80.68 27.8166C81.4176 27.4038 81.9967 26.8684 82.4159 26.212V28.2094C82.4159 29.3398 82.1519 30.162 81.6222 30.6758C81.0942 31.1897 80.3847 31.4466 79.4953 31.4466C78.7578 31.4466 78.1358 31.2908 77.6342 30.9792C77.1309 30.6676 76.8108 30.2416 76.6772 29.7029H72.4251C72.6099 31.3886 73.3475 32.7229 74.6394 33.7092C75.9314 34.6954 77.6177 35.1877 79.6983 35.1877C81.2576 35.1877 82.5627 34.8761 83.6121 34.2512C84.6599 33.6279 85.4403 32.7892 85.9535 31.735C86.465 30.6825 86.7207 29.5073 86.7207 28.2077V14.1251H82.4175H82.4159ZM81.5216 23.7323C80.9259 24.3556 80.1999 24.6688 79.3436 24.6688C78.4872 24.6688 77.7629 24.3523 77.1672 23.7207C76.5699 23.0875 76.2729 22.2322 76.2729 21.1548C76.2729 20.0774 76.5699 19.2287 77.1672 18.6138C77.7629 17.9988 78.4889 17.6905 79.3436 17.6905C80.1982 17.6905 80.9259 18.0021 81.5216 18.6271C82.1172 19.2503 82.4159 20.1006 82.4159 21.1813C82.4159 22.2621 82.1172 23.1107 81.5216 23.7356V23.7323ZM65.7839 14.1251V28.2326H70.0871V14.1251H65.7839ZM69.7719 8.65021C69.2934 8.20433 68.6845 7.98055 67.947 7.98055C67.2094 7.98055 66.5759 8.20433 66.0974 8.65021C65.6189 9.09609 65.3813 9.658 65.3813 10.3326C65.3813 10.8448 65.5265 11.294 65.8185 11.6769C65.8746 11.7532 65.9373 11.8261 66.0066 11.8974C66.0363 11.9289 66.0676 11.9587 66.099 11.9885C66.5775 12.4344 67.1946 12.6598 67.9487 12.6598C68.7027 12.6598 69.2951 12.4361 69.7736 11.9885C70.2521 11.5426 70.4913 10.989 70.4913 10.3326C70.4913 9.67624 70.2521 9.09775 69.7736 8.65021H69.7719ZM61.2035 14.6423C60.4494 15.0882 59.8191 15.7015 59.3158 16.4755V14.1235H55.011V28.2309H59.3158V21.6836C59.3158 20.52 59.5832 19.7078 60.1211 19.2437C60.659 18.7795 61.4642 18.5491 62.5367 18.5491H63.7197V13.9726C62.7974 13.9726 61.9592 14.1947 61.2035 14.6423ZM52.9683 18.5956C52.7621 13.1322 48.3037 8.73143 42.862 8.61208C39.9217 8.5491 37.2488 9.72431 35.3265 11.6554C35.1714 11.2924 35.0031 10.936 34.8232 10.5846C33.957 8.88227 32.8201 7.30924 31.4358 5.92021C30.5481 5.02844 29.5878 4.24111 28.5665 3.55985C25.5816 1.57078 22.0803 0.501654 18.4157 0.501654C13.497 0.501654 8.87205 2.42608 5.39385 5.92021C1.94535 9.38451 -0.00164895 14.1069 1.04787e-06 19.0066C0.00165105 23.9461 1.9173 28.589 5.39385 32.0814C8.87205 35.5756 13.4954 37.5 18.4157 37.5C20.8758 37.5 23.26 37.0193 25.4661 36.101C26.3637 35.7264 27.2316 35.2805 28.0616 34.765C28.319 34.6059 28.3536 34.2462 28.1375 34.0357C28.0583 33.9578 27.979 33.8799 27.8999 33.8003C27.1194 33.0163 26.4082 32.1809 25.7697 31.3024C25.6344 31.1167 25.3803 31.062 25.179 31.1731C19.8974 34.1302 13.0862 33.3578 8.60475 28.8558C5.94825 26.1872 4.5012 22.6267 4.54245 18.8458C4.5804 15.2539 6.01095 11.7929 8.51895 9.23201C11.1507 6.54345 14.6702 5.0616 18.4173 5.0616C20.9649 5.0616 23.4069 5.74617 25.5354 7.02912C26.504 7.61424 27.4081 8.32201 28.2299 9.14582C29.9508 10.8747 31.1636 12.9781 31.7939 15.2722C32.1222 16.4722 32.2921 17.7253 32.2921 19.0017C32.2921 21.8676 33.4538 24.465 35.3281 26.3463C37.2009 28.226 39.7864 29.3912 42.636 29.3912C48.472 29.3912 53.1944 24.5097 52.97 18.5972L52.9683 18.5956ZM42.6344 24.8296C39.435 24.8296 36.8313 22.214 36.8313 19C36.8313 15.786 39.435 13.1704 42.6344 13.1704C45.8337 13.1704 48.4374 15.786 48.4374 19C48.4374 22.214 45.8354 24.8296 42.6344 24.8296ZM56.0703 30.53H53.1564C52.9485 30.53 52.7802 30.3609 52.7802 30.1521V29.4244C52.7802 29.0929 52.3859 28.9221 52.145 29.1492C51.6533 29.615 50.9141 30.2482 50.0627 30.7769C45.6159 33.5335 39.9878 33.6512 35.5179 30.9692C34.556 30.3924 33.6484 29.6879 32.8235 28.8575C31.1025 27.1287 29.8897 25.0252 29.2594 22.7295C28.9294 21.5294 28.7595 20.278 28.7595 19C28.7595 16.1341 27.5996 13.535 25.7252 11.6537C23.8029 9.72431 21.1266 8.54744 18.1863 8.61208C12.7446 8.73308 8.28795 13.1339 8.08335 18.5972C7.8606 24.5081 12.5829 29.3879 18.419 29.3879C21.2685 29.3879 23.8541 28.2243 25.7252 26.3446C25.8803 26.7076 26.0485 27.064 26.2284 27.4171C27.0947 29.1194 28.2315 30.6908 29.6142 32.0814C30.5019 32.9732 31.4639 33.7605 32.4852 34.4418C35.4701 36.4309 38.9714 37.5 42.636 37.5C45.0945 37.5 47.4804 37.0193 49.6865 36.101C51.8909 35.1844 53.9171 33.8285 55.6562 32.0831C55.9103 31.8278 56.1561 31.5659 56.3937 31.3007C56.6528 31.0107 56.4531 30.5515 56.0719 30.5333L56.0703 30.53ZM24.1956 19.5337C23.9481 22.3184 21.7173 24.5595 18.9453 24.8064C15.3285 25.1297 12.314 22.098 12.6357 18.4663C12.8832 15.6816 15.1157 13.4389 17.8877 13.1936C21.5045 12.8704 24.5174 15.9004 24.1956 19.5337ZM59.3291 11.173C58.4315 9.24527 57.1973 7.46837 55.6545 5.91855C52.1763 2.42442 47.553 0.5 42.6344 0.5C39.1743 0.5 35.8578 1.45144 32.9868 3.23331C32.7311 3.39244 32.6948 3.75047 32.9109 3.96264C32.9901 4.04054 33.0693 4.11845 33.1485 4.19801C33.9273 4.98038 34.6385 5.81413 35.2754 6.69263C35.4107 6.87994 35.6681 6.93298 35.8677 6.82026C37.9121 5.66992 40.2237 5.05828 42.6327 5.05828C46.3386 5.05828 49.8234 6.50864 52.4436 9.14084C53.196 9.89669 53.8511 10.7238 54.4038 11.6073C54.488 11.7432 54.6348 11.8261 54.7949 11.8261H58.9083C59.2449 11.8261 59.4693 11.4763 59.3274 11.1697L59.3291 11.173Z" fill="url(#paint0_linear_1_4582)" style=""/>
<defs>
<linearGradient id="paint0_linear_1_4582" x1="1.04787e-06" y1="19" x2="132" y2="19" gradientUnits="userSpaceOnUse">
<stop stop-color="#D30069" style="stop-color:#D30069;stop-color:color(display-p3 0.8275 0.0000 0.4118);stop-opacity:1;"/>
<stop offset="0.99" stop-color="#7351DD" style="stop-color:#7351DD;stop-color:color(display-p3 0.4510 0.3176 0.8667);stop-opacity:1;"/>
</linearGradient>
</defs>
</svg>
